<?xml version="1.0" encoding="UTF-8"?>
<!DOCTYPE svg PUBLIC "-//W3C//DTD SVG 1.1//EN" "http://www.w3.org/Graphics/SVG/1.1/DTD/svg11.dtd">
<svg xmlns="http://www.w3.org/2000/svg" version="1.1" width="192px" height="256px" style="shape-rendering:geometricPrecision; text-rendering:geometricPrecision; image-rendering:optimizeQuality; fill-rule:evenodd; clip-rule:evenodd" xmlns:xlink="http://www.w3.org/1999/xlink">
<g><path style="opacity:1" fill="#d9845c" d="M 141.5,55.5 C 146.753,62.155 149.086,69.8217 148.5,78.5C 145.35,70.2463 139.85,63.913 132,59.5C 124.5,67.6667 117,75.8333 109.5,84C 98.2319,82.7005 86.8986,82.3672 75.5,83C 65.3528,85.7446 55.6861,89.5779 46.5,94.5C 46.4606,93.4168 46.1272,92.4168 45.5,91.5C 49.2706,87.0191 53.7706,83.3524 59,80.5C 74.6244,72.6826 90.4577,71.6826 106.5,77.5C 109.47,76.3633 111.636,74.3633 113,71.5C 113.667,72.8333 114.333,72.8333 115,71.5C 119.904,64.0124 124.738,56.5124 129.5,49C 133.003,49.293 135.669,51.1264 137.5,54.5C 138.689,55.4287 140.022,55.762 141.5,55.5 Z"/></g>
<g><path style="opacity:1" fill="#be7958" d="M 148.5,78.5 C 148.226,89.8264 145.392,100.493 140,110.5C 138.892,114.086 138.392,117.753 138.5,121.5C 138.5,121.833 138.5,122.167 138.5,122.5C 137.672,128.319 137.172,134.319 137,140.5C 136.302,141.691 135.469,142.691 134.5,143.5C 131.632,143.915 129.465,142.915 128,140.5C 128.129,128.833 128.629,117.166 129.5,105.5C 124.814,105.162 120.147,104.995 115.5,105C 109.17,109.336 102.17,112.003 94.5,113C 86.1667,113.667 77.8333,113.667 69.5,113C 66.3728,112.608 63.3728,111.775 60.5,110.5C 60.1667,111 59.8333,111.5 59.5,112C 62.375,123.035 64.2083,134.201 65,145.5C 64.2917,146.381 63.4584,147.047 62.5,147.5C 59.9556,147.896 57.7889,147.229 56,145.5C 55.5908,141.698 54.7575,138.031 53.5,134.5C 52.2693,128.939 51.436,123.272 51,117.5C 50.7216,116.584 50.2216,115.918 49.5,115.5C 49.6567,114.127 49.49,112.793 49,111.5C 45.1932,106.059 41.0265,100.892 36.5,96C 39.0362,93.295 41.7029,90.795 44.5,88.5C 42.8866,91.1318 41.22,93.7984 39.5,96.5C 39.8333,97.5 40.5,98.1667 41.5,98.5C 43.4192,97.3875 45.0858,96.0542 46.5,94.5C 55.6861,89.5779 65.3528,85.7446 75.5,83C 86.8986,82.3672 98.2319,82.7005 109.5,84C 117,75.8333 124.5,67.6667 132,59.5C 139.85,63.913 145.35,70.2463 148.5,78.5 Z"/></g>
<g><path style="opacity:1" fill="#d68a62" d="M 141.5,55.5 C 140.022,55.762 138.689,55.4287 137.5,54.5C 135.669,51.1264 133.003,49.293 129.5,49C 124.738,56.5124 119.904,64.0124 115,71.5C 114.333,72.8333 113.667,72.8333 113,71.5C 111.636,74.3633 109.47,76.3633 106.5,77.5C 90.4577,71.6826 74.6244,72.6826 59,80.5C 53.7706,83.3524 49.2706,87.0191 45.5,91.5C 46.1272,92.4168 46.4606,93.4168 46.5,94.5C 45.0858,96.0542 43.4192,97.3875 41.5,98.5C 40.5,98.1667 39.8333,97.5 39.5,96.5C 41.22,93.7984 42.8866,91.1318 44.5,88.5C 63.3739,72.2991 84.7072,67.7991 108.5,75C 115.877,64.412 123.377,53.912 131,43.5C 135.203,46.9201 138.703,50.9201 141.5,55.5 Z"/></g>
<g><path style="opacity:1" fill="#fcd4af" d="M 134.5,143.5 C 134.5,144.5 134.5,145.5 134.5,146.5C 138.09,146.456 140.59,144.789 142,141.5C 143.379,136.785 142.379,132.785 139,129.5C 138.503,127.19 138.337,124.857 138.5,122.5C 138.5,122.167 138.5,121.833 138.5,121.5C 139.057,116.769 141.724,113.769 146.5,112.5C 148.499,110.507 149.999,108.173 151,105.5C 151.893,104.919 152.893,104.585 154,104.5C 158.987,105.909 163.82,107.742 168.5,110C 170.79,111.777 172.457,113.944 173.5,116.5C 167.681,128.45 161.014,140.117 153.5,151.5C 148.259,148.6 143.259,148.933 138.5,152.5C 136.883,153.038 135.216,153.371 133.5,153.5C 132.598,160.067 128.931,164.067 122.5,165.5C 117.77,165.283 113.103,165.617 108.5,166.5C 100.475,166.39 92.4754,166.724 84.5,167.5C 79.187,168.098 73.8537,168.431 68.5,168.5C 67.8333,168.5 67.1667,168.5 66.5,168.5C 65.0222,168.762 63.6888,168.429 62.5,167.5C 61.7565,164.557 61.2565,161.557 61,158.5C 59.5098,157.272 58.0098,157.272 56.5,158.5C 54.2259,157.263 51.8926,155.929 49.5,154.5C 47.1369,155.17 44.8036,155.837 42.5,156.5C 35.8413,146.525 29.6746,136.192 24,125.5C 23.7883,122.242 23.2883,119.076 22.5,116C 24.6175,114.951 26.2842,113.451 27.5,111.5C 31.9612,108.273 36.9612,106.773 42.5,107C 43.8002,110.814 46.1336,113.648 49.5,115.5C 50.2216,115.918 50.7216,116.584 51,117.5C 51.436,123.272 52.2693,128.939 53.5,134.5C 52.2101,135.058 51.3768,136.058 51,137.5C 48.5645,145.659 51.3979,150.326 59.5,151.5C 59.5,150.5 59.5,149.5 59.5,148.5C 60.791,148.737 61.791,148.404 62.5,147.5C 63.4584,147.047 64.2917,146.381 65,145.5C 64.2083,134.201 62.375,123.035 59.5,112C 59.8333,111.5 60.1667,111 60.5,110.5C 63.3728,111.775 66.3728,112.608 69.5,113C 77.8333,113.667 86.1667,113.667 94.5,113C 102.17,112.003 109.17,109.336 115.5,105C 120.147,104.995 124.814,105.162 129.5,105.5C 128.629,117.166 128.129,128.833 128,140.5C 129.465,142.915 131.632,143.915 134.5,143.5 Z"/></g>
<g><path style="opacity:1" fill="#c17d5b" d="M 83.5,115.5 C 84.675,115.281 85.675,115.614 86.5,116.5C 87.3482,118.409 87.6816,120.409 87.5,122.5C 82.3132,124.005 77.1465,125.672 72,127.5C 70.1896,125.933 69.023,123.933 68.5,121.5C 73.5901,119.476 78.5901,117.476 83.5,115.5 Z"/></g>
<g><path style="opacity:1" fill="#c17d5c" d="M 116.5,127.5 C 113.833,127.5 111.167,127.5 108.5,127.5C 107.167,127.5 105.833,127.5 104.5,127.5C 104.5,124.833 104.5,122.167 104.5,119.5C 110.833,120.167 117.167,120.833 123.5,121.5C 124.755,127.918 122.422,129.918 116.5,127.5 Z"/></g>
<g><path style="opacity:1" fill="#c07b5b" d="M 108.5,128.5 C 113.158,128.491 115.491,130.825 115.5,135.5C 116.012,140.199 114.012,142.532 109.5,142.5C 105.965,138.083 105.632,133.416 108.5,128.5 Z"/></g>
<g><path style="opacity:1" fill="#fdf9f6" d="M 108.5,128.5 C 108.5,128.167 108.5,127.833 108.5,127.5C 111.167,127.5 113.833,127.5 116.5,127.5C 122.796,132.072 123.129,137.239 117.5,143C 114.633,143.801 111.966,143.634 109.5,142.5C 114.012,142.532 116.012,140.199 115.5,135.5C 115.491,130.825 113.158,128.491 108.5,128.5 Z"/></g>
<g><path style="opacity:1" fill="#fcf5f0" d="M 83.5,130.5 C 87.6397,133.635 88.473,137.635 86,142.5C 82.3356,147.124 78.1689,147.624 73.5,144C 71.0577,139.948 70.891,135.781 73,131.5C 76.3417,128.054 79.8417,127.721 83.5,130.5 Z"/></g>
<g><path style="opacity:1" fill="#e6b487" d="M 138.5,122.5 C 138.337,124.857 138.503,127.19 139,129.5C 142.379,132.785 143.379,136.785 142,141.5C 140.59,144.789 138.09,146.456 134.5,146.5C 134.5,145.5 134.5,144.5 134.5,143.5C 135.469,142.691 136.302,141.691 137,140.5C 137.172,134.319 137.672,128.319 138.5,122.5 Z"/></g>
<g><path style="opacity:1" fill="#bf7a5a" d="M 83.5,130.5 C 85.3878,133.931 85.8878,137.598 85,141.5C 81.8015,145.659 79.1348,145.325 77,140.5C 76.1067,137.084 76.6067,133.917 78.5,131C 80.1341,130.506 81.8008,130.34 83.5,130.5 Z"/></g>
<g><path style="opacity:1" fill="#e5b386" d="M 53.5,134.5 C 54.7575,138.031 55.5908,141.698 56,145.5C 57.7889,147.229 59.9556,147.896 62.5,147.5C 61.791,148.404 60.791,148.737 59.5,148.5C 59.5,149.5 59.5,150.5 59.5,151.5C 51.3979,150.326 48.5645,145.659 51,137.5C 51.3768,136.058 52.2101,135.058 53.5,134.5 Z"/></g>
<g><path style="opacity:1" fill="#e7b687" d="M 92.5,138.5 C 95.5184,138.335 98.5184,138.502 101.5,139C 103.325,140.466 103.825,142.299 103,144.5C 98.1354,148.788 93.9687,148.288 90.5,143C 90.5186,141.167 91.1852,139.667 92.5,138.5 Z"/></g>
<g><path style="opacity:1" fill="#e6c2a1" d="M 173.5,116.5 C 174.972,118.117 175.639,120.117 175.5,122.5C 175.14,126.273 174.307,129.939 173,133.5C 169.311,140.894 165.144,147.894 160.5,154.5C 158.574,152.707 156.241,151.707 153.5,151.5C 161.014,140.117 167.681,128.45 173.5,116.5 Z"/></g>
<g><path style="opacity:1" fill="#e6c2a1" d="M 27.5,111.5 C 26.2842,113.451 24.6175,114.951 22.5,116C 23.2883,119.076 23.7883,122.242 24,125.5C 29.6746,136.192 35.8413,146.525 42.5,156.5C 39.6538,156.552 37.3204,157.552 35.5,159.5C 31.9489,152.778 27.7822,146.445 23,140.5C 19.2777,133.946 17.9443,126.946 19,119.5C 20.4129,115.252 23.2462,112.585 27.5,111.5 Z"/></g>
<g><path style="opacity:1" fill="#f8f9f7" d="M 153.5,151.5 C 151.88,155.082 149.547,158.082 146.5,160.5C 146.167,160.5 145.833,160.5 145.5,160.5C 143.167,157.833 140.833,155.167 138.5,152.5C 143.259,148.933 148.259,148.6 153.5,151.5 Z"/></g>
<g><path style="opacity:1" fill="#fefcfa" d="M 102.5,150.5 C 102.5,152.5 102.5,154.5 102.5,156.5C 97.5068,156.916 92.5068,157.249 87.5,157.5C 85.9261,155.898 85.2594,153.898 85.5,151.5C 91.1448,150.866 96.8114,150.532 102.5,150.5 Z"/></g>
<g><path style="opacity:1" fill="#c37f5f" d="M 102.5,150.5 C 105.5,150.5 108.5,150.5 111.5,150.5C 109.057,159.76 103.057,163.593 93.5,162C 91.2528,160.723 89.2528,159.223 87.5,157.5C 92.5068,157.249 97.5068,156.916 102.5,156.5C 102.5,154.5 102.5,152.5 102.5,150.5 Z"/></g>
<g><path style="opacity:1" fill="#e2e2e1" d="M 153.5,151.5 C 156.241,151.707 158.574,152.707 160.5,154.5C 158.567,158.698 155.901,162.365 152.5,165.5C 149.911,164.581 147.911,162.914 146.5,160.5C 149.547,158.082 151.88,155.082 153.5,151.5 Z"/></g>
<g><path style="opacity:1" fill="#f0f1ef" d="M 56.5,158.5 C 54.5,160.833 52.5,163.167 50.5,165.5C 48.4268,167.58 46.0934,169.246 43.5,170.5C 40.0994,167.365 37.4327,163.698 35.5,159.5C 37.3204,157.552 39.6538,156.552 42.5,156.5C 44.8036,155.837 47.1369,155.17 49.5,154.5C 51.8926,155.929 54.2259,157.263 56.5,158.5 Z"/></g>
<g><path style="opacity:1" fill="#37af6e" d="M 138.5,152.5 C 140.833,155.167 143.167,157.833 145.5,160.5C 144,162.179 142.167,163.512 140,164.5C 139.53,165.577 139.697,166.577 140.5,167.5C 137.388,168.689 134.222,169.689 131,170.5C 128.833,169.512 127,168.179 125.5,166.5C 124.791,165.596 123.791,165.263 122.5,165.5C 128.931,164.067 132.598,160.067 133.5,153.5C 135.216,153.371 136.883,153.038 138.5,152.5 Z"/></g>
<g><path style="opacity:1" fill="#b19272" d="M 108.5,166.5 C 104.398,169.392 100.065,172.059 95.5,174.5C 91.5995,172.392 87.9328,170.059 84.5,167.5C 92.4754,166.724 100.475,166.39 108.5,166.5 Z"/></g>
<g><path style="opacity:1" fill="#248c53" d="M 122.5,165.5 C 123.791,165.263 124.791,165.596 125.5,166.5C 125.167,167.167 124.833,167.833 124.5,168.5C 120.883,169.642 117.55,171.308 114.5,173.5C 109.758,176.288 104.925,178.955 100,181.5C 98.2661,179.71 96.7661,177.71 95.5,175.5C 94.2339,177.71 92.7339,179.71 91,181.5C 86.1866,179.093 81.5199,176.427 77,173.5C 76.7216,174.416 76.2216,175.082 75.5,175.5C 75.719,174.325 75.3857,173.325 74.5,172.5C 72.4346,171.143 70.4346,169.81 68.5,168.5C 73.8537,168.431 79.187,168.098 84.5,167.5C 87.9328,170.059 91.5995,172.392 95.5,174.5C 100.065,172.059 104.398,169.392 108.5,166.5C 113.103,165.617 117.77,165.283 122.5,165.5 Z"/></g>
<g><path style="opacity:1" fill="#299459" d="M 145.5,160.5 C 145.833,160.5 146.167,160.5 146.5,160.5C 147.911,162.914 149.911,164.581 152.5,165.5C 153.8,166.601 154.3,167.934 154,169.5C 151.815,170.928 149.815,172.595 148,174.5C 147.292,173.619 146.458,172.953 145.5,172.5C 144.167,170.5 142.5,168.833 140.5,167.5C 139.697,166.577 139.53,165.577 140,164.5C 142.167,163.512 144,162.179 145.5,160.5 Z"/></g>
<g><path style="opacity:1" fill="#3aa86d" d="M 125.5,166.5 C 127,168.179 128.833,169.512 131,170.5C 134.222,169.689 137.388,168.689 140.5,167.5C 142.5,168.833 144.167,170.5 145.5,172.5C 139.967,176.429 134.3,180.096 128.5,183.5C 126.386,178.806 125.053,173.806 124.5,168.5C 124.833,167.833 125.167,167.167 125.5,166.5 Z"/></g>
<g><path style="opacity:1" fill="#3cae6f" d="M 66.5,168.5 C 65.8174,175.195 64.1507,181.528 61.5,187.5C 58.9563,183.04 55.2897,179.707 50.5,177.5C 52.4773,175.186 54.4773,172.853 56.5,170.5C 54.4691,168.825 52.4691,167.159 50.5,165.5C 52.5,163.167 54.5,160.833 56.5,158.5C 58.0098,157.272 59.5098,157.272 61,158.5C 61.2565,161.557 61.7565,164.557 62.5,167.5C 63.6888,168.429 65.0222,168.762 66.5,168.5 Z"/></g>
<g><path style="opacity:1" fill="#289459" d="M 50.5,165.5 C 52.4691,167.159 54.4691,168.825 56.5,170.5C 54.4773,172.853 52.4773,175.186 50.5,177.5C 49.5416,177.953 48.7083,178.619 48,179.5C 45.6969,177.607 43.5302,175.607 41.5,173.5C 42.1925,172.482 42.8592,171.482 43.5,170.5C 46.0934,169.246 48.4268,167.58 50.5,165.5 Z"/></g>
<g><path style="opacity:1" fill="#38ad6f" d="M 114.5,173.5 C 115.774,175.993 116.44,178.659 116.5,181.5C 103.973,185.401 91.14,185.401 78,181.5C 76.2382,181.944 76.4049,182.444 78.5,183C 76.6577,182.932 74.991,183.099 73.5,183.5C 74.3705,180.888 75.0372,178.221 75.5,175.5C 76.2216,175.082 76.7216,174.416 77,173.5C 81.5199,176.427 86.1866,179.093 91,181.5C 92.7339,179.71 94.2339,177.71 95.5,175.5C 96.7661,177.71 98.2661,179.71 100,181.5C 104.925,178.955 109.758,176.288 114.5,173.5 Z"/></g>
<g><path style="opacity:1" fill="#b47454" d="M 66.5,168.5 C 67.1667,168.5 67.8333,168.5 68.5,168.5C 70.4346,169.81 72.4346,171.143 74.5,172.5C 75.3857,173.325 75.719,174.325 75.5,175.5C 75.0372,178.221 74.3705,180.888 73.5,183.5C 72.1916,187.4 71.1916,191.4 70.5,195.5C 67.9591,194.897 65.6257,194.897 63.5,195.5C 60.2301,193.627 59.5634,190.96 61.5,187.5C 64.1507,181.528 65.8174,175.195 66.5,168.5 Z"/></g>
<g><path style="opacity:1" fill="#b07253" d="M 124.5,168.5 C 125.053,173.806 126.386,178.806 128.5,183.5C 129.583,187.085 130.249,190.751 130.5,194.5C 128.708,194.366 127.042,194.699 125.5,195.5C 123.833,195.5 122.167,195.5 120.5,195.5C 120.279,192.933 119.612,190.599 118.5,188.5C 118.59,185.848 117.924,183.515 116.5,181.5C 116.44,178.659 115.774,175.993 114.5,173.5C 117.55,171.308 120.883,169.642 124.5,168.5 Z"/></g>
<g><path style="opacity:1" fill="#3ebd79" d="M 116.5,181.5 C 117.924,183.515 118.59,185.848 118.5,188.5C 118.5,191.833 118.5,195.167 118.5,198.5C 101.163,198.667 83.8301,198.5 66.5,198C 67.8584,197.066 69.1917,196.232 70.5,195.5C 71.1916,191.4 72.1916,187.4 73.5,183.5C 74.991,183.099 76.6577,182.932 78.5,183C 76.4049,182.444 76.2382,181.944 78,181.5C 91.14,185.401 103.973,185.401 116.5,181.5 Z"/></g>
<g><path style="opacity:1" fill="#57ac71" d="M 118.5,188.5 C 119.612,190.599 120.279,192.933 120.5,195.5C 122.167,195.5 123.833,195.5 125.5,195.5C 125.768,197.099 125.434,198.432 124.5,199.5C 104.5,199.5 84.5,199.5 64.5,199.5C 63.5655,198.432 63.2322,197.099 63.5,195.5C 65.6257,194.897 67.9591,194.897 70.5,195.5C 69.1917,196.232 67.8584,197.066 66.5,198C 83.8301,198.5 101.163,198.667 118.5,198.5C 118.5,195.167 118.5,191.833 118.5,188.5 Z"/></g>
<g><path style="opacity:1" fill="#bc7757" d="M 64.5,199.5 C 84.5,199.5 104.5,199.5 124.5,199.5C 124.5,202.833 124.5,206.167 124.5,209.5C 106.353,208.214 88.3534,208.214 70.5,209.5C 68.5,209.5 66.5,209.5 64.5,209.5C 64.5,206.167 64.5,202.833 64.5,199.5 Z"/></g>
<g><path style="opacity:1" fill="#ea9f5e" d="M 64.5,209.5 C 66.5,209.5 68.5,209.5 70.5,209.5C 77.175,209.334 83.8417,209.5 90.5,210C 88.683,211.8 87.5163,213.966 87,216.5C 86.5014,220.152 86.3347,223.818 86.5,227.5C 80.5,227.5 74.5,227.5 68.5,227.5C 66.676,221.648 65.3427,215.648 64.5,209.5 Z"/></g>
<g><path style="opacity:1" fill="#e0975c" d="M 70.5,209.5 C 88.3534,208.214 106.353,208.214 124.5,209.5C 123.466,218.136 122.8,226.803 122.5,235.5C 120.426,233.285 120.093,230.785 121.5,228C 119.866,227.506 118.199,227.34 116.5,227.5C 116.5,221.5 116.5,215.5 116.5,209.5C 110.824,209.334 105.157,209.501 99.5,210C 102.094,211.339 103.594,213.506 104,216.5C 104.499,220.152 104.665,223.818 104.5,227.5C 102.5,227.5 100.5,227.5 98.5,227.5C 97.7347,224.904 97.4013,222.237 97.5,219.5C 96.1667,219.5 94.8333,219.5 93.5,219.5C 92.2602,225.506 92.2602,231.506 93.5,237.5C 92.5,237.5 91.5,237.5 90.5,237.5C 91.1048,234.643 91.1048,231.309 90.5,227.5C 89.1667,227.5 87.8333,227.5 86.5,227.5C 86.3347,223.818 86.5014,220.152 87,216.5C 87.5163,213.966 88.683,211.8 90.5,210C 83.8417,209.5 77.175,209.334 70.5,209.5 Z"/></g>
<g><path style="opacity:1" fill="#eda05f" d="M 116.5,227.5 C 112.5,227.5 108.5,227.5 104.5,227.5C 104.665,223.818 104.499,220.152 104,216.5C 103.594,213.506 102.094,211.339 99.5,210C 105.157,209.501 110.824,209.334 116.5,209.5C 116.5,215.5 116.5,221.5 116.5,227.5 Z"/></g>
<g><path style="opacity:1" fill="#d48948" d="M 68.5,227.5 C 74.5,227.5 80.5,227.5 86.5,227.5C 87.8333,227.5 89.1667,227.5 90.5,227.5C 91.1048,231.309 91.1048,234.643 90.5,237.5C 83.1667,237.5 75.8333,237.5 68.5,237.5C 68.5,234.167 68.5,230.833 68.5,227.5 Z"/></g>
<g><path style="opacity:1" fill="#d48948" d="M 98.5,227.5 C 100.5,227.5 102.5,227.5 104.5,227.5C 108.5,227.5 112.5,227.5 116.5,227.5C 118.199,227.34 119.866,227.506 121.5,228C 120.093,230.785 120.426,233.285 122.5,235.5C 122.5,236.167 122.5,236.833 122.5,237.5C 114.167,237.5 105.833,237.5 97.5,237.5C 97.8333,234.167 98.1667,230.833 98.5,227.5 Z"/></g>
<g><path style="opacity:1" fill="#b37254" d="M 68.5,237.5 C 75.8333,237.5 83.1667,237.5 90.5,237.5C 91.5,237.5 92.5,237.5 93.5,237.5C 93.5,240.833 93.5,244.167 93.5,247.5C 92.2502,247.577 91.4169,248.244 91,249.5C 81.5981,249.804 72.0981,249.471 62.5,248.5C 61.5,248.667 60.5,248.833 59.5,249C 58.9011,250.622 58.2344,252.122 57.5,253.5C 57.3398,251.801 57.5065,250.134 58,248.5C 61.7316,244.938 65.2316,241.271 68.5,237.5 Z"/></g>
<g><path style="opacity:1" fill="#b57455" d="M 97.5,237.5 C 105.833,237.5 114.167,237.5 122.5,237.5C 126.138,241.474 129.805,245.474 133.5,249.5C 130.715,249.067 128.381,247.734 126.5,245.5C 118.634,246.785 110.467,246.785 102,245.5C 100.393,246.074 98.8933,246.74 97.5,247.5C 97.5,244.167 97.5,240.833 97.5,237.5 Z"/></g>
<g><path style="opacity:1" fill="#a1694e" d="M 93.5,247.5 C 93.5,250.167 93.5,252.833 93.5,255.5C 81.5,255.5 69.5,255.5 57.5,255.5C 57.5,254.833 57.5,254.167 57.5,253.5C 58.2344,252.122 58.9011,250.622 59.5,249C 60.5,248.833 61.5,248.667 62.5,248.5C 72.0981,249.471 81.5981,249.804 91,249.5C 91.4169,248.244 92.2502,247.577 93.5,247.5 Z"/></g>
<g><path style="opacity:1" fill="#a36a4e" d="M 133.5,249.5 C 133.5,251.5 133.5,253.5 133.5,255.5C 121.5,255.5 109.5,255.5 97.5,255.5C 97.5,252.833 97.5,250.167 97.5,247.5C 98.8933,246.74 100.393,246.074 102,245.5C 110.467,246.785 118.634,246.785 126.5,245.5C 128.381,247.734 130.715,249.067 133.5,249.5 Z"/></g>
</svg>
