<?xml version="1.0" encoding="UTF-8"?>
<!DOCTYPE svg PUBLIC "-//W3C//DTD SVG 1.1//EN" "http://www.w3.org/Graphics/SVG/1.1/DTD/svg11.dtd">
<svg xmlns="http://www.w3.org/2000/svg" version="1.1" width="192px" height="256px" style="shape-rendering:geometricPrecision; text-rendering:geometricPrecision; image-rendering:optimizeQuality; fill-rule:evenodd; clip-rule:evenodd" xmlns:xlink="http://www.w3.org/1999/xlink">
<g><path style="opacity:0.998" fill="#bed3e4" d="M 118.5,87.5 C 116.185,88.783 114.852,90.783 114.5,93.5C 115.798,96.4222 116.798,99.4222 117.5,102.5C 113.176,102.927 108.842,103.261 104.5,103.5C 106.369,102.835 108.369,102.169 110.5,101.5C 102.976,92.1355 93.6427,89.9689 82.5,95C 79.6,97.3968 77.2667,100.23 75.5,103.5C 77.396,104.466 79.396,104.799 81.5,104.5C 77.3656,105.485 73.0323,105.818 68.5,105.5C 69.3307,101.524 69.4973,97.5239 69,93.5C 67.5913,92.2189 66.0913,91.2189 64.5,90.5C 76.1236,77.1749 90.4569,73.3416 107.5,79C 111.958,80.886 115.625,83.7193 118.5,87.5 Z"/></g>
<g><path style="opacity:1" fill="#518ebe" d="M 118.5,87.5 C 120.527,87.3379 122.527,87.5045 124.5,88C 126.456,92.0302 128.122,96.1969 129.5,100.5C 131.396,101.466 133.396,101.799 135.5,101.5C 134.669,108.131 134.336,114.798 134.5,121.5C 136.216,121.629 137.883,121.962 139.5,122.5C 141.355,124.033 143.188,125.7 145,127.5C 146.75,125.266 148.25,122.932 149.5,120.5C 155.57,118.334 160.57,119.668 164.5,124.5C 165.423,128.064 165.756,131.731 165.5,135.5C 165.167,136.5 164.5,137.167 163.5,137.5C 158.912,141.01 154.078,141.343 149,138.5C 147.924,141.237 146.757,143.904 145.5,146.5C 142.489,151.174 138.155,153.507 132.5,153.5C 133.002,147.495 133.168,141.495 133,135.5C 121.713,142.294 116.213,152.294 116.5,165.5C 103.502,166.208 90.5023,166.875 77.5,167.5C 76.6232,154.721 69.9566,147.054 57.5,144.5C 58.9835,149.033 59.6502,153.699 59.5,158.5C 54.116,158.141 49.4493,156.141 45.5,152.5C 43.3502,149.528 42.3502,146.195 42.5,142.5C 39.0977,142.658 35.7644,142.324 32.5,141.5C 30.8333,140.5 29.5,139.167 28.5,137.5C 27.1667,133.833 27.1667,130.167 28.5,126.5C 33.0856,121.403 38.419,120.403 44.5,123.5C 46.2083,125.216 47.5416,127.216 48.5,129.5C 50.1446,128.304 51.8113,127.304 53.5,126.5C 54.1667,126.5 54.5,126.167 54.5,125.5C 53.9259,120.714 52.9259,116.048 51.5,111.5C 51.7135,109.856 51.3802,108.356 50.5,107C 52.4727,106.505 54.4727,106.338 56.5,106.5C 56.9022,102.088 57.7355,97.7543 59,93.5C 60.5833,92.0289 62.4166,91.0289 64.5,90.5C 66.0913,91.2189 67.5913,92.2189 69,93.5C 69.4973,97.5239 69.3307,101.524 68.5,105.5C 73.0323,105.818 77.3656,105.485 81.5,104.5C 89.1696,104.222 96.8363,103.889 104.5,103.5C 108.842,103.261 113.176,102.927 117.5,102.5C 116.798,99.4222 115.798,96.4222 114.5,93.5C 114.852,90.783 116.185,88.783 118.5,87.5 Z"/></g>
<g><path style="opacity:1" fill="#fdfefe" d="M 104.5,103.5 C 96.8363,103.889 89.1696,104.222 81.5,104.5C 79.396,104.799 77.396,104.466 75.5,103.5C 77.2667,100.23 79.6,97.3968 82.5,95C 93.6427,89.9689 102.976,92.1355 110.5,101.5C 108.369,102.169 106.369,102.835 104.5,103.5 Z"/></g>
<g><path style="opacity:0.999" fill="#b9cedf" d="M 51.5,111.5 C 52.9259,116.048 53.9259,120.714 54.5,125.5C 53.8333,125.5 53.5,125.833 53.5,126.5C 51.8113,127.304 50.1446,128.304 48.5,129.5C 47.5416,127.216 46.2083,125.216 44.5,123.5C 45.6687,119.706 44.3354,117.039 40.5,115.5C 39.5159,112.572 39.1826,109.572 39.5,106.5C 44.4871,105.999 48.4871,107.665 51.5,111.5 Z"/></g>
<g><path style="opacity:1" fill="#b0c2d1" d="M 28.5,126.5 C 27.1667,130.167 27.1667,133.833 28.5,137.5C 18.2063,132.686 15.373,125.02 20,114.5C 25.0396,108.783 28.5396,109.783 30.5,117.5C 27.5299,120.019 26.8633,123.019 28.5,126.5 Z"/></g>
<g><path style="opacity:1" fill="#4a7da5" d="M 89.5,114.5 C 104.353,113.191 111.519,119.858 111,134.5C 104.839,146.202 96.006,148.702 84.5,142C 78.4602,134.891 77.9602,127.391 83,119.5C 84.9651,117.45 87.1318,115.783 89.5,114.5 Z"/></g>
<g><path style="opacity:0.983" fill="#b9cede" d="M 149.5,120.5 C 148.25,122.932 146.75,125.266 145,127.5C 143.188,125.7 141.355,124.033 139.5,122.5C 138.429,111.262 143.429,105.262 154.5,104.5C 154.817,107.572 154.484,110.572 153.5,113.5C 149.711,114.761 148.378,117.094 149.5,120.5 Z"/></g>
<g><path style="opacity:1" fill="#f7c91b" d="M 91.5,119.5 C 101.828,118.663 106.662,123.33 106,133.5C 101.011,141.13 94.6772,142.463 87,137.5C 82.5301,129.769 84.0301,123.769 91.5,119.5 Z"/></g>
<g><path style="opacity:0.986" fill="#acbecd" d="M 165.5,135.5 C 165.756,131.731 165.423,128.064 164.5,124.5C 165.947,123.866 166.613,122.699 166.5,121C 166.166,118.825 165.166,116.992 163.5,115.5C 167.171,106.365 171.004,106.365 175,115.5C 177.424,124.98 174.258,131.647 165.5,135.5 Z"/></g>
<g><path style="opacity:1" fill="#fefdf9" d="M 94.5,126.5 C 101.622,126.246 102.955,128.746 98.5,134C 93.6325,133.711 92.2991,131.211 94.5,126.5 Z"/></g>
<g><path style="opacity:1" fill="#324d62" d="M 145.5,146.5 C 150.863,146.866 154.529,149.533 156.5,154.5C 157.244,162.598 153.577,167.432 145.5,169C 141.244,172.623 136.577,175.456 131.5,177.5C 130.414,177.38 129.747,176.713 129.5,175.5C 130.477,172.737 131.143,169.904 131.5,167C 131.225,161.665 129.225,160.665 125.5,164C 122.568,164.953 119.568,165.453 116.5,165.5C 116.213,152.294 121.713,142.294 133,135.5C 133.168,141.495 133.002,147.495 132.5,153.5C 138.155,153.507 142.489,151.174 145.5,146.5 Z"/></g>
<g><path style="opacity:1" fill="#44749b" d="M 163.5,137.5 C 162.514,143.795 160.18,149.462 156.5,154.5C 154.529,149.533 150.863,146.866 145.5,146.5C 146.757,143.904 147.924,141.237 149,138.5C 154.078,141.343 158.912,141.01 163.5,137.5 Z"/></g>
<g><path style="opacity:1" fill="#447399" d="M 32.5,141.5 C 35.7644,142.324 39.0977,142.658 42.5,142.5C 42.3502,146.195 43.3502,149.528 45.5,152.5C 42.7891,154.275 40.7891,156.609 39.5,159.5C 35.6112,154.177 33.2778,148.177 32.5,141.5 Z"/></g>
<g><path style="opacity:1" fill="#bbd1e3" d="M 106.5,154.5 C 105.942,155.79 104.942,156.623 103.5,157C 97.8333,157.667 92.1667,157.667 86.5,157C 85.7476,156.329 85.4142,155.496 85.5,154.5C 86.5893,152.883 88.256,152.05 90.5,152C 95.8229,151.501 101.156,151.334 106.5,151.5C 106.5,152.5 106.5,153.5 106.5,154.5 Z"/></g>
<g><path style="opacity:1" fill="#365167" d="M 85.5,154.5 C 85.4142,155.496 85.7476,156.329 86.5,157C 92.1667,157.667 97.8333,157.667 103.5,157C 104.942,156.623 105.942,155.79 106.5,154.5C 107.268,153.737 107.768,152.737 108,151.5C 112.406,154.844 112.573,158.344 108.5,162C 100.214,163.454 91.8805,163.787 83.5,163C 80.7335,159.364 80.9001,155.864 84,152.5C 84.2784,153.416 84.7784,154.082 85.5,154.5 Z"/></g>
<g><path style="opacity:1" fill="#417299" d="M 142.5,152.5 C 149.442,150.943 152.275,153.61 151,160.5C 148.421,162.347 145.588,162.847 142.5,162C 139.875,158.763 139.875,155.596 142.5,152.5 Z"/></g>
<g><path style="opacity:1" fill="#314b5f" d="M 77.5,167.5 C 72.3595,168.488 67.0262,168.821 61.5,168.5C 61.162,166.146 60.662,163.813 60,161.5C 59.3333,162.167 58.6667,162.833 58,163.5C 57.222,168.331 57.722,172.997 59.5,177.5C 57.7839,177.371 56.1172,177.038 54.5,176.5C 49.6797,174.491 45.1797,171.824 41,168.5C 39.7114,165.649 39.2114,162.649 39.5,159.5C 40.7891,156.609 42.7891,154.275 45.5,152.5C 49.4493,156.141 54.116,158.141 59.5,158.5C 59.6502,153.699 58.9835,149.033 57.5,144.5C 69.9566,147.054 76.6232,154.721 77.5,167.5 Z"/></g>
<g><path style="opacity:1" fill="#417197" d="M 77.5,167.5 C 90.5023,166.875 103.502,166.208 116.5,165.5C 119.568,165.453 122.568,164.953 125.5,164C 129.225,160.665 131.225,161.665 131.5,167C 131.143,169.904 130.477,172.737 129.5,175.5C 129.747,176.713 130.414,177.38 131.5,177.5C 130.531,178.309 129.698,179.309 129,180.5C 127.653,186.888 126.153,193.221 124.5,199.5C 120.116,199.826 115.783,199.492 111.5,198.5C 115.991,187.807 113.658,178.973 104.5,172C 88.1565,166.164 78.4898,171.664 75.5,188.5C 75.4013,191.999 76.068,195.332 77.5,198.5C 73.2172,199.492 68.8839,199.826 64.5,199.5C 62.8523,193.911 61.3523,188.245 60,182.5C 58.6403,179.977 56.807,177.977 54.5,176.5C 56.1172,177.038 57.7839,177.371 59.5,177.5C 57.722,172.997 57.222,168.331 58,163.5C 58.6667,162.833 59.3333,162.167 60,161.5C 60.662,163.813 61.162,166.146 61.5,168.5C 67.0262,168.821 72.3595,168.488 77.5,167.5 Z"/></g>
<g><path style="opacity:1" fill="#324b5f" d="M 124.5,199.5 C 124.5,202.5 124.5,205.5 124.5,208.5C 104.5,208.5 84.5,208.5 64.5,208.5C 64.5,205.5 64.5,202.5 64.5,199.5C 68.8839,199.826 73.2172,199.492 77.5,198.5C 76.068,195.332 75.4013,191.999 75.5,188.5C 78.4898,171.664 88.1565,166.164 104.5,172C 113.658,178.973 115.991,187.807 111.5,198.5C 115.783,199.492 120.116,199.826 124.5,199.5 Z"/></g>
<g><path style="opacity:1" fill="#f86395" d="M 93.5,177.5 C 97.3722,179.193 100.872,181.526 104,184.5C 103.668,188.838 102.502,193.004 100.5,197C 96.2452,197.796 92.0785,197.629 88,196.5C 86.8333,193 85.6667,189.5 84.5,186C 87.3311,183.003 90.3311,180.169 93.5,177.5 Z"/></g>
<g><path style="opacity:1" fill="#518fc0" d="M 124.5,209.5 C 124.675,211.621 124.341,213.621 123.5,215.5C 122.751,216.531 122.085,217.698 121.5,219C 113.507,219.5 105.507,219.666 97.5,219.5C 96.1667,219.5 94.8333,219.5 93.5,219.5C 86.5,219.5 79.5,219.5 72.5,219.5C 72.2767,216.216 71.6101,213.049 70.5,210C 88.4969,209.5 106.497,209.333 124.5,209.5 Z"/></g>
<g><path style="opacity:1" fill="#477ba4" d="M 64.5,208.5 C 84.5,208.5 104.5,208.5 124.5,208.5C 124.5,208.833 124.5,209.167 124.5,209.5C 106.497,209.333 88.4969,209.5 70.5,210C 71.6101,213.049 72.2767,216.216 72.5,219.5C 79.5,219.5 86.5,219.5 93.5,219.5C 93.552,221.903 93.2186,224.236 92.5,226.5C 88.7926,222.567 84.9593,222.567 81,226.5C 80.5014,230.152 80.3347,233.818 80.5,237.5C 76.5,237.5 72.5,237.5 68.5,237.5C 69.2647,229.779 68.0981,222.446 65,215.5C 64.5034,213.19 64.3367,210.857 64.5,208.5 Z"/></g>
<g><path style="opacity:1" fill="#477aa2" d="M 123.5,215.5 C 122.882,222.817 122.549,230.151 122.5,237.5C 118.5,237.5 114.5,237.5 110.5,237.5C 111.026,232.891 110.359,228.557 108.5,224.5C 104.454,222.741 101.121,223.408 98.5,226.5C 97.7814,224.236 97.448,221.903 97.5,219.5C 105.507,219.666 113.507,219.5 121.5,219C 122.085,217.698 122.751,216.531 123.5,215.5 Z"/></g>
<g><path style="opacity:1" fill="#324b5f" d="M 92.5,226.5 C 93.4938,235.986 93.8271,245.652 93.5,255.5C 81.5,255.5 69.5,255.5 57.5,255.5C 57.3367,253.143 57.5034,250.81 58,248.5C 61.7316,244.938 65.2316,241.271 68.5,237.5C 72.5,237.5 76.5,237.5 80.5,237.5C 80.3347,233.818 80.5014,230.152 81,226.5C 84.9593,222.567 88.7926,222.567 92.5,226.5 Z"/></g>
<g><path style="opacity:1" fill="#324a5e" d="M 122.5,237.5 C 125.768,241.271 129.268,244.938 133,248.5C 133.497,250.81 133.663,253.143 133.5,255.5C 121.5,255.5 109.5,255.5 97.5,255.5C 97.1729,245.652 97.5062,235.986 98.5,226.5C 101.121,223.408 104.454,222.741 108.5,224.5C 110.359,228.557 111.026,232.891 110.5,237.5C 114.5,237.5 118.5,237.5 122.5,237.5 Z"/></g>
</svg>
