<?xml version="1.0" encoding="UTF-8"?>
<!DOCTYPE svg PUBLIC "-//W3C//DTD SVG 1.1//EN" "http://www.w3.org/Graphics/SVG/1.1/DTD/svg11.dtd">
<svg xmlns="http://www.w3.org/2000/svg" version="1.1" width="192px" height="256px" style="shape-rendering:geometricPrecision; text-rendering:geometricPrecision; image-rendering:optimizeQuality; fill-rule:evenodd; clip-rule:evenodd" xmlns:xlink="http://www.w3.org/1999/xlink">
<g><path style="opacity:0.969" fill="#52565b" d="M 142.5,109.5 C 141.593,107.343 140.927,105.01 140.5,102.5C 132.991,80.2175 117.325,68.8842 93.5,68.5C 70.6192,68.2407 54.7859,78.574 46,99.5C 45.433,102.168 44.933,104.834 44.5,107.5C 44.8693,109.993 44.2027,110.66 42.5,109.5C 47.5249,81.1525 64.5249,66.8192 93.5,66.5C 115.07,66.592 130.57,76.2587 140,95.5C 141.542,100.045 142.376,104.711 142.5,109.5 Z"/></g>
<g><path style="opacity:1" fill="#454a51" d="M 140.5,102.5 C 127.143,81.8745 108.143,73.7079 83.5,78C 65.1158,80.9033 52.1158,90.7366 44.5,107.5C 44.933,104.834 45.433,102.168 46,99.5C 54.7859,78.574 70.6192,68.2407 93.5,68.5C 117.325,68.8842 132.991,80.2175 140.5,102.5 Z"/></g>
<g><path style="opacity:1" fill="#3d3f42" d="M 140.5,102.5 C 140.927,105.01 141.593,107.343 142.5,109.5C 142.5,110.833 142.5,112.167 142.5,113.5C 142.167,113.5 141.833,113.5 141.5,113.5C 139.819,111.992 137.819,110.992 135.5,110.5C 134.78,114.7 134.114,119.033 133.5,123.5C 131.604,124.466 129.604,124.799 127.5,124.5C 126.21,123.942 125.377,122.942 125,121.5C 124.818,118.774 124.318,116.107 123.5,113.5C 122.571,114.689 122.238,116.022 122.5,117.5C 111.951,119.627 101.951,118.127 92.5,113C 89.3223,110.486 86.1556,107.986 83,105.5C 76.6444,109.301 69.811,111.968 62.5,113.5C 62.2783,118.096 62.1116,122.762 62,127.5C 60.2111,129.229 58.0444,129.896 55.5,129.5C 54.0512,127.389 53.0512,125.056 52.5,122.5C 52.5999,114.124 50.0999,113.457 45,120.5C 44.6667,120.167 44.3333,119.833 44,119.5C 43.8171,116.635 43.3171,113.969 42.5,111.5C 42.5,110.833 42.5,110.167 42.5,109.5C 44.2027,110.66 44.8693,109.993 44.5,107.5C 52.1158,90.7366 65.1158,80.9033 83.5,78C 108.143,73.7079 127.143,81.8745 140.5,102.5 Z"/></g>
<g><path style="opacity:1" fill="#6f9eb9" d="M 82.5,83.5 C 92.8983,83.1009 103.232,83.6009 113.5,85C 119.106,87.0489 123.94,90.2156 128,94.5C 128.667,95.8333 128.667,97.1667 128,98.5C 123.395,96.2815 118.561,94.7815 113.5,94C 93.8857,91.0602 75.219,93.8936 57.5,102.5C 56.4173,101.635 56.2506,100.635 57,99.5C 63.5412,90.9827 72.0412,85.6494 82.5,83.5 Z"/></g>
<g><path style="opacity:1" fill="#bd7858" d="M 127.5,124.5 C 128.919,125.451 130.585,125.784 132.5,125.5C 132.18,128.898 132.513,132.232 133.5,135.5C 134.182,134.757 134.849,134.091 135.5,133.5C 135.963,136.221 136.629,138.888 137.5,141.5C 135.712,141.215 134.045,141.548 132.5,142.5C 130.847,147.814 128.18,152.481 124.5,156.5C 122.809,157.864 121.142,159.197 119.5,160.5C 117.847,160.66 116.514,161.326 115.5,162.5C 101.968,167.422 88.3009,167.756 74.5,163.5C 73.8333,163.167 73.1667,162.833 72.5,162.5C 72.1583,161.662 71.4916,161.328 70.5,161.5C 65.2629,157.756 61.2629,152.923 58.5,147C 57.2068,146.51 55.8734,146.343 54.5,146.5C 54.5,143.833 54.5,141.167 54.5,138.5C 55.1515,139.091 55.8182,139.757 56.5,140.5C 56.8333,139.833 57.1667,139.167 57.5,138.5C 56.4144,135.58 55.7477,132.58 55.5,129.5C 58.0444,129.896 60.2111,129.229 62,127.5C 62.1116,122.762 62.2783,118.096 62.5,113.5C 69.811,111.968 76.6444,109.301 83,105.5C 86.1556,107.986 89.3223,110.486 92.5,113C 101.951,118.127 111.951,119.627 122.5,117.5C 122.238,116.022 122.571,114.689 123.5,113.5C 124.318,116.107 124.818,118.774 125,121.5C 125.377,122.942 126.21,123.942 127.5,124.5 Z"/></g>
<g><path style="opacity:1" fill="#bc7857" d="M 153.5,150.5 C 150.32,148.745 147.32,146.745 144.5,144.5C 145.641,142.451 145.641,140.451 144.5,138.5C 146.933,138.214 146.933,137.548 144.5,136.5C 143.675,134.19 142.342,132.19 140.5,130.5C 140.665,127.482 140.498,124.482 140,121.5C 139.363,119.697 138.197,118.364 136.5,117.5C 135.526,115.257 135.192,112.924 135.5,110.5C 137.819,110.992 139.819,111.992 141.5,113.5C 142.152,114.725 143.319,115.392 145,115.5C 146.167,115.333 147.333,115.167 148.5,115C 150.907,112.298 153.407,109.798 156,107.5C 160.862,109.05 165.362,111.05 169.5,113.5C 164.207,124.434 159.707,135.768 156,147.5C 155.623,148.942 154.79,149.942 153.5,150.5 Z"/></g>
<g><path style="opacity:1" fill="#ba7656" d="M 42.5,111.5 C 43.3171,113.969 43.8171,116.635 44,119.5C 44.3333,119.833 44.6667,120.167 45,120.5C 50.0999,113.457 52.5999,114.124 52.5,122.5C 47.1649,126.172 46.1649,130.838 49.5,136.5C 48.8826,136.611 48.3826,136.944 48,137.5C 47.0023,141.473 46.6689,145.473 47,149.5C 47.6708,150.252 48.5041,150.586 49.5,150.5C 47.1401,152.853 44.4735,154.853 41.5,156.5C 39.7292,155.235 38.0625,153.735 36.5,152C 34.326,143.857 30.4927,136.69 25,130.5C 23.1992,126.309 22.5325,121.975 23,117.5C 27.1139,113.621 31.9473,110.954 37.5,109.5C 39.1955,110.174 40.8621,110.841 42.5,111.5 Z"/></g>
<g><path style="opacity:1" fill="#ad7154" d="M 107.5,110.5 C 119.811,111.75 120.144,113.083 108.5,114.5C 107.833,114.167 107.167,113.833 106.5,113.5C 107.127,112.583 107.461,111.583 107.5,110.5 Z"/></g>
<g><path style="opacity:1" fill="#444142" d="M 65.5,116.5 C 71.857,116.476 78.1903,116.81 84.5,117.5C 84.5,118.833 84.5,120.167 84.5,121.5C 78.143,121.524 71.8097,121.19 65.5,120.5C 65.5,119.167 65.5,117.833 65.5,116.5 Z"/></g>
<g><path style="opacity:1" fill="#a46142" d="M 135.5,110.5 C 135.192,112.924 135.526,115.257 136.5,117.5C 138.197,118.364 139.363,119.697 140,121.5C 140.498,124.482 140.665,127.482 140.5,130.5C 137.715,129.916 136.048,130.916 135.5,133.5C 134.849,134.091 134.182,134.757 133.5,135.5C 132.513,132.232 132.18,128.898 132.5,125.5C 130.585,125.784 128.919,125.451 127.5,124.5C 129.604,124.799 131.604,124.466 133.5,123.5C 134.114,119.033 134.78,114.7 135.5,110.5 Z"/></g>
<g><path style="opacity:1" fill="#464446" d="M 113.5,121.5 C 116.572,121.183 119.572,121.516 122.5,122.5C 121.304,124.145 120.304,125.811 119.5,127.5C 118.36,124.605 116.36,122.605 113.5,121.5 Z"/></g>
<g><path style="opacity:1" fill="#f1ecea" d="M 113.5,121.5 C 116.36,122.605 118.36,124.605 119.5,127.5C 120.825,135.665 117.491,139.498 109.5,139C 104.268,136.367 102.435,132.201 104,126.5C 104.759,124.937 105.926,123.937 107.5,123.5C 108.99,121.72 110.99,121.054 113.5,121.5 Z"/></g>
<g><path style="opacity:1" fill="#a86140" d="M 52.5,122.5 C 53.0512,125.056 54.0512,127.389 55.5,129.5C 55.7477,132.58 56.4144,135.58 57.5,138.5C 57.1667,139.167 56.8333,139.833 56.5,140.5C 55.8182,139.757 55.1515,139.091 54.5,138.5C 53.3646,136.787 51.698,136.12 49.5,136.5C 46.1649,130.838 47.1649,126.172 52.5,122.5 Z"/></g>
<g><path style="opacity:1" fill="#f4f0ee" d="M 74.5,124.5 C 76.8568,124.337 79.1902,124.503 81.5,125C 82.056,125.383 82.3893,125.883 82.5,126.5C 87.1661,129.866 87.6661,133.866 84,138.5C 78.131,143.188 73.4643,142.188 70,135.5C 69.5065,133.866 69.3398,132.199 69.5,130.5C 70.4735,127.865 72.1402,125.865 74.5,124.5 Z"/></g>
<g><path style="opacity:1" fill="#414346" d="M 107.5,123.5 C 114.109,124.258 116.276,127.925 114,134.5C 111.525,138.405 108.858,138.405 106,134.5C 105.112,130.598 105.612,126.931 107.5,123.5 Z"/></g>
<g><path style="opacity:1" fill="#4d4847" d="M 74.5,124.5 C 72.1402,125.865 70.4735,127.865 69.5,130.5C 68.0686,128.563 66.4019,126.73 64.5,125C 67.8168,124.502 71.1501,124.335 74.5,124.5 Z"/></g>
<g><path style="opacity:1" fill="#454649" d="M 82.5,126.5 C 85.4079,130.898 85.0745,135.064 81.5,139C 77.7469,139.926 75.5802,138.426 75,134.5C 73.7628,127.908 76.2628,125.241 82.5,126.5 Z"/></g>
<g><path style="opacity:1" fill="#ae7357" d="M 159.5,154.5 C 157.147,153.66 155.147,152.326 153.5,150.5C 154.79,149.942 155.623,148.942 156,147.5C 159.707,135.768 164.207,124.434 169.5,113.5C 165.362,111.05 160.862,109.05 156,107.5C 153.407,109.798 150.907,112.298 148.5,115C 147.333,115.167 146.167,115.333 145,115.5C 143.319,115.392 142.152,114.725 141.5,113.5C 141.833,113.5 142.167,113.5 142.5,113.5C 144.544,114.778 146.544,114.612 148.5,113C 149.69,109.314 152.023,106.814 155.5,105.5C 162.307,106.819 168.14,109.819 173,114.5C 174.845,118.143 174.845,121.809 173,125.5C 170.839,130.492 168.172,135.159 165,139.5C 163.453,144.644 161.62,149.644 159.5,154.5 Z"/></g>
<g><path style="opacity:1" fill="#ae7559" d="M 42.5,109.5 C 42.5,110.167 42.5,110.833 42.5,111.5C 40.8621,110.841 39.1955,110.174 37.5,109.5C 31.9473,110.954 27.1139,113.621 23,117.5C 22.5325,121.975 23.1992,126.309 25,130.5C 30.4927,136.69 34.326,143.857 36.5,152C 38.0625,153.735 39.7292,155.235 41.5,156.5C 40.3065,157.272 39.3065,158.272 38.5,159.5C 37.8333,159.5 37.1667,159.5 36.5,159.5C 34.3801,154.644 32.5468,149.644 31,144.5C 25.0473,137.928 21.214,130.261 19.5,121.5C 19.5918,118.047 20.9251,115.214 23.5,113C 28.1973,110.732 33.0306,108.898 38,107.5C 39.7866,107.759 41.2866,108.425 42.5,109.5 Z"/></g>
<g><path style="opacity:1" fill="#eb9e5f" d="M 140.5,130.5 C 142.342,132.19 143.675,134.19 144.5,136.5C 144.5,137.167 144.5,137.833 144.5,138.5C 145.641,140.451 145.641,142.451 144.5,144.5C 142.833,144.5 141.167,144.5 139.5,144.5C 138.599,143.71 137.932,142.71 137.5,141.5C 136.629,138.888 135.963,136.221 135.5,133.5C 136.048,130.916 137.715,129.916 140.5,130.5 Z"/></g>
<g><path style="opacity:1" fill="#965536" d="M 90.5,133.5 C 93.5184,133.335 96.5184,133.502 99.5,134C 103.4,136.951 103.067,139.618 98.5,142C 95.0838,142.893 91.9172,142.393 89,140.5C 88.1668,137.829 88.6668,135.496 90.5,133.5 Z"/></g>
<g><path style="opacity:1" fill="#ec9f5f" d="M 49.5,136.5 C 51.698,136.12 53.3646,136.787 54.5,138.5C 54.5,141.167 54.5,143.833 54.5,146.5C 53.8333,146.5 53.5,146.833 53.5,147.5C 53.3059,149.912 51.9726,150.912 49.5,150.5C 48.5041,150.586 47.6708,150.252 47,149.5C 46.6689,145.473 47.0023,141.473 48,137.5C 48.3826,136.944 48.8826,136.611 49.5,136.5 Z"/></g>
<g><path style="opacity:1" fill="#414242" d="M 137.5,141.5 C 137.932,142.71 138.599,143.71 139.5,144.5C 137.919,146.142 137.253,148.142 137.5,150.5C 133.833,153.167 130.167,155.833 126.5,158.5C 125.833,157.833 125.167,157.167 124.5,156.5C 128.18,152.481 130.847,147.814 132.5,142.5C 134.045,141.548 135.712,141.215 137.5,141.5 Z"/></g>
<g><path style="opacity:1" fill="#fbf6f4" d="M 100.5,146.5 C 100.5,148.833 100.5,151.167 100.5,153.5C 96.5,153.5 92.5,153.5 88.5,153.5C 84.0917,153.938 82.4251,151.938 83.5,147.5C 89.1377,146.78 94.8044,146.447 100.5,146.5 Z"/></g>
<g><path style="opacity:1" fill="#a86140" d="M 100.5,146.5 C 103.167,146.5 105.833,146.5 108.5,146.5C 108.447,152.067 105.78,155.901 100.5,158C 95.3063,159.242 90.6397,158.242 86.5,155C 87.4158,154.722 88.0825,154.222 88.5,153.5C 92.5,153.5 96.5,153.5 100.5,153.5C 100.5,151.167 100.5,148.833 100.5,146.5 Z"/></g>
<g><path style="opacity:1" fill="#444544" d="M 53.5,147.5 C 53.5,146.833 53.8333,146.5 54.5,146.5C 55.8734,146.343 57.2068,146.51 58.5,147C 61.2629,152.923 65.2629,157.756 70.5,161.5C 65.8711,160.898 61.8711,158.898 58.5,155.5C 58.6567,154.127 58.49,152.793 58,151.5C 57.1237,149.365 55.6237,148.031 53.5,147.5 Z"/></g>
<g><path style="opacity:1" fill="#3ab776" d="M 123.5,160.5 C 124.29,159.599 125.29,158.932 126.5,158.5C 130.167,155.833 133.833,153.167 137.5,150.5C 138.117,150.389 138.617,150.056 139,149.5C 142.512,151.679 145.346,154.512 147.5,158C 144.475,161.682 140.809,164.682 136.5,167C 131.584,168.05 127.417,166.883 124,163.5C 123.667,163.833 123.333,164.167 123,164.5C 122.544,163.256 123.044,162.423 124.5,162C 123.944,161.617 123.611,161.117 123.5,160.5 Z"/></g>
<g><path style="opacity:0.043" fill="#151615" d="M 124.5,156.5 C 125.167,157.167 125.833,157.833 126.5,158.5C 125.29,158.932 124.29,159.599 123.5,160.5C 122.167,160.5 120.833,160.5 119.5,160.5C 121.142,159.197 122.809,157.864 124.5,156.5 Z"/></g>
<g><path style="opacity:1" fill="#3ab273" d="M 58.5,155.5 C 61.8711,158.898 65.8711,160.898 70.5,161.5C 71.4916,161.328 72.1583,161.662 72.5,162.5C 71.7325,171.986 75.7325,178.319 84.5,181.5C 82.9582,182.301 81.2915,182.634 79.5,182.5C 72.3912,177.727 69.0578,179.727 69.5,188.5C 67.3655,187.297 66.0322,185.463 65.5,183C 65.6472,181.026 65.9805,179.026 66.5,177C 65.8095,175.933 65.3095,174.766 65,173.5C 64.6667,173.833 64.3333,174.167 64,174.5C 62.3523,173.283 60.519,172.45 58.5,172C 55.4419,168.62 52.1086,165.454 48.5,162.5C 51.1729,158.551 54.5062,156.218 58.5,155.5 Z"/></g>
<g><path style="opacity:1" fill="#30a567" d="M 53.5,147.5 C 55.6237,148.031 57.1237,149.365 58,151.5C 58.49,152.793 58.6567,154.127 58.5,155.5C 54.5062,156.218 51.1729,158.551 48.5,162.5C 52.1086,165.454 55.4419,168.62 58.5,172C 60.519,172.45 62.3523,173.283 64,174.5C 64.3333,174.167 64.6667,173.833 65,173.5C 65.3095,174.766 65.8095,175.933 66.5,177C 65.9805,179.026 65.6472,181.026 65.5,183C 66.0322,185.463 67.3655,187.297 69.5,188.5C 72.529,191.901 73.8624,195.901 73.5,200.5C 71.5,200.5 69.5,200.5 67.5,200.5C 66.9126,194.632 65.5792,188.966 63.5,183.5C 63.4894,181.983 62.8228,180.816 61.5,180C 53.7665,175.758 46.7665,170.591 40.5,164.5C 39.0499,163.15 38.3832,161.484 38.5,159.5C 39.3065,158.272 40.3065,157.272 41.5,156.5C 44.4735,154.853 47.1401,152.853 49.5,150.5C 51.9726,150.912 53.3059,149.912 53.5,147.5 Z"/></g>
<g><path style="opacity:1" fill="#d8d9d8" d="M 72.5,162.5 C 73.1667,162.833 73.8333,163.167 74.5,163.5C 76.649,170.48 81.3157,174.98 88.5,177C 98.2868,178.857 106.453,176.024 113,168.5C 114.122,166.593 114.955,164.593 115.5,162.5C 117.114,173.107 112.447,179.607 101.5,182C 97.5138,182.499 93.5138,182.666 89.5,182.5C 87.7839,182.371 86.1172,182.038 84.5,181.5C 75.7325,178.319 71.7325,171.986 72.5,162.5 Z"/></g>
<g><path style="opacity:1" fill="#9a6349" d="M 115.5,162.5 C 114.955,164.593 114.122,166.593 113,168.5C 106.453,176.024 98.2868,178.857 88.5,177C 81.3157,174.98 76.649,170.48 74.5,163.5C 88.3009,167.756 101.968,167.422 115.5,162.5 Z"/></g>
<g><path style="opacity:0.96" fill="#3f9f6b" d="M 36.5,159.5 C 37.1667,159.5 37.8333,159.5 38.5,159.5C 38.3832,161.484 39.0499,163.15 40.5,164.5C 46.7665,170.591 53.7665,175.758 61.5,180C 62.8228,180.816 63.4894,181.983 63.5,183.5C 55.2334,179.769 48.0667,174.436 42,167.5C 40.8173,168.731 39.6507,168.731 38.5,167.5C 37.6198,165.571 36.6198,163.737 35.5,162C 35.7432,161.098 36.0766,160.265 36.5,159.5 Z"/></g>
<g><path style="opacity:1" fill="#35a569" d="M 139.5,144.5 C 141.167,144.5 142.833,144.5 144.5,144.5C 147.32,146.745 150.32,148.745 153.5,150.5C 155.147,152.326 157.147,153.66 159.5,154.5C 159.923,155.265 160.257,156.098 160.5,157C 159.38,158.737 158.38,160.571 157.5,162.5C 156.349,163.731 155.183,163.731 154,162.5C 146.491,171.583 137.158,177.916 126,181.5C 123.921,187.738 122.421,194.071 121.5,200.5C 119.5,200.5 117.5,200.5 115.5,200.5C 115.244,194.51 117.577,189.677 122.5,186C 121.359,185.259 121.359,184.425 122.5,183.5C 121.071,181.122 119.238,179.788 117,179.5C 114.931,180.264 112.764,180.764 110.5,181C 109.944,181.383 109.611,181.883 109.5,182.5C 102.691,183.732 96.0244,183.732 89.5,182.5C 93.5138,182.666 97.5138,182.499 101.5,182C 112.447,179.607 117.114,173.107 115.5,162.5C 116.514,161.326 117.847,160.66 119.5,160.5C 120.833,160.5 122.167,160.5 123.5,160.5C 123.611,161.117 123.944,161.617 124.5,162C 123.044,162.423 122.544,163.256 123,164.5C 123.333,164.167 123.667,163.833 124,163.5C 127.417,166.883 131.584,168.05 136.5,167C 140.809,164.682 144.475,161.682 147.5,158C 145.346,154.512 142.512,151.679 139,149.5C 138.617,150.056 138.117,150.389 137.5,150.5C 137.253,148.142 137.919,146.142 139.5,144.5 Z"/></g>
<g><path style="opacity:1" fill="#3cbc79" d="M 79.5,182.5 C 74.1751,183.264 73.5085,185.097 77.5,188C 83.5296,188.252 89.5296,188.752 95.5,189.5C 101.49,188.631 107.49,187.797 113.5,187C 114.337,185.989 114.67,184.822 114.5,183.5C 112.784,183.371 111.117,183.038 109.5,182.5C 109.611,181.883 109.944,181.383 110.5,181C 112.764,180.764 114.931,180.264 117,179.5C 119.238,179.788 121.071,181.122 122.5,183.5C 121.359,184.425 121.359,185.259 122.5,186C 117.577,189.677 115.244,194.51 115.5,200.5C 101.5,200.5 87.5,200.5 73.5,200.5C 73.8624,195.901 72.529,191.901 69.5,188.5C 69.0578,179.727 72.3912,177.727 79.5,182.5 Z"/></g>
<g><path style="opacity:1" fill="#24a561" d="M 84.5,181.5 C 86.1172,182.038 87.7839,182.371 89.5,182.5C 96.0244,183.732 102.691,183.732 109.5,182.5C 111.117,183.038 112.784,183.371 114.5,183.5C 114.67,184.822 114.337,185.989 113.5,187C 107.49,187.797 101.49,188.631 95.5,189.5C 89.5296,188.752 83.5296,188.252 77.5,188C 73.5085,185.097 74.1751,183.264 79.5,182.5C 81.2915,182.634 82.9582,182.301 84.5,181.5 Z"/></g>
<g><path style="opacity:1" fill="#3b3d40" d="M 67.5,200.5 C 69.5,200.5 71.5,200.5 73.5,200.5C 87.5,200.5 101.5,200.5 115.5,200.5C 117.5,200.5 119.5,200.5 121.5,200.5C 122.552,200.351 123.552,200.517 124.5,201C 123.577,203.041 123.244,205.208 123.5,207.5C 122.596,208.209 122.263,209.209 122.5,210.5C 104.167,210.5 85.8333,210.5 67.5,210.5C 66.3909,208.414 65.7243,206.08 65.5,203.5C 65.6399,201.97 66.3065,200.97 67.5,200.5 Z"/></g>
<g><path style="opacity:1" fill="#6164ba" d="M 123.5,207.5 C 123.713,214.211 123.38,220.877 122.5,227.5C 116.167,227.5 109.833,227.5 103.5,227.5C 103.167,224.833 102.833,222.167 102.5,219.5C 97.8333,219.5 93.1667,219.5 88.5,219.5C 88.1667,222.167 87.8333,224.833 87.5,227.5C 81.1667,227.5 74.8333,227.5 68.5,227.5C 67.6463,221.879 67.313,216.212 67.5,210.5C 85.8333,210.5 104.167,210.5 122.5,210.5C 122.263,209.209 122.596,208.209 123.5,207.5 Z"/></g>
<g><path style="opacity:1" fill="#ba7656" d="M 68.5,227.5 C 74.8333,227.5 81.1667,227.5 87.5,227.5C 87.5,230.833 87.5,234.167 87.5,237.5C 81.1667,237.5 74.8333,237.5 68.5,237.5C 68.5,234.167 68.5,230.833 68.5,227.5 Z"/></g>
<g><path style="opacity:1" fill="#ba7656" d="M 103.5,227.5 C 109.833,227.5 116.167,227.5 122.5,227.5C 122.5,230.833 122.5,234.167 122.5,237.5C 116.167,237.5 109.833,237.5 103.5,237.5C 103.5,234.167 103.5,230.833 103.5,227.5 Z"/></g>
<g><path style="opacity:1" fill="#b2c6d5" d="M 103.5,237.5 C 109.833,237.5 116.167,237.5 122.5,237.5C 124.047,243.042 127.38,247.042 132.5,249.5C 122.833,249.5 113.167,249.5 103.5,249.5C 103.5,245.5 103.5,241.5 103.5,237.5 Z"/></g>
<g><path style="opacity:1" fill="#aec0cf" d="M 68.5,237.5 C 74.8333,237.5 81.1667,237.5 87.5,237.5C 87.5,241.5 87.5,245.5 87.5,249.5C 77.8333,249.5 68.1667,249.5 58.5,249.5C 63.6199,247.042 66.9532,243.042 68.5,237.5 Z"/></g>
<g><path style="opacity:0.995" fill="#d5d5d5" d="M 58.5,249.5 C 68.1667,249.5 77.8333,249.5 87.5,249.5C 87.5,251.5 87.5,253.5 87.5,255.5C 77.5,255.5 67.5,255.5 57.5,255.5C 57.2053,253.265 57.5386,251.265 58.5,249.5 Z"/></g>
<g><path style="opacity:0.995" fill="#d5d5d5" d="M 103.5,249.5 C 113.167,249.5 122.833,249.5 132.5,249.5C 133.461,251.265 133.795,253.265 133.5,255.5C 123.5,255.5 113.5,255.5 103.5,255.5C 103.5,253.5 103.5,251.5 103.5,249.5 Z"/></g>
</svg>
